0
SECTION
2
HEADER
9
$INSUNITS
70
4
9
$ACADVER
1
AC1014
9
$HANDSEED
5
FFFF
0
ENDSEC
0
SECTION
2
TABLES
0
TABLE
2
VPORT
5
8
100
AcDbSymbolTable
0
ENDTAB
0
TABLE
2
LTYPE
5
5
100
AcDbSymbolTable
0
LTYPE
5
14
100
AcDbSymbolTableRecord
100
AcDbLinetypeTableRecord
2
BYBLOCK
70
0
0
LTYPE
5
15
100
AcDbSymbolTableRecord
100
AcDbLinetypeTableRecord
2
BYLAYER
70
0
0
ENDTAB
0
TABLE
2
LAYER
5
2
100
AcDbSymbolTable
70
2
0
LAYER
5
50
100
AcDbSymbolTableRecord
100
AcDbLayerTableRecord
2
0
70
0
6
CONTINUOUS
0
ENDTAB
0
TABLE
2
STYLE
5
3
100
AcDbSymbolTable
70
1
0
STYLE
5
11
100
AcDbSymbolTableRecord
100
AcDbTextStyleTableRecord
2
STANDARD
70
0
0
ENDTAB
0
TABLE
2
VIEW
5
6
100
AcDbSymbolTable
70
0
0
ENDTAB
0
TABLE
2
UCS
5
7
100
AcDbSymbolTable
70
0
0
ENDTAB
0
TABLE
2
APPID
5
9
100
AcDbSymbolTable
70
2
0
APPID
5
12
100
AcDbSymbolTableRecord
100
AcDbRegAppTableRecord
2
ACAD
70
0
0
ENDTAB
0
TABLE
2
DIMSTYLE
5
A
100
AcDbSymbolTable
70
1
0
ENDTAB
0
TABLE
2
BLOCK_RECORD
5
1
100
AcDbSymbolTable
70
1
0
BLOCK_RECORD
5
1F
100
AcDbSymbolTableRecord
100
AcDbBlockTableRecord
2
*MODEL_SPACE
0
BLOCK_RECORD
5
1B
100
AcDbSymbolTableRecord
100
AcDbBlockTableRecord
2
*PAPER_SPACE
0
ENDTAB
0
ENDSEC
0
SECTION
2
BLOCKS
0
BLOCK
5
20
100
AcDbEntity
100
AcDbBlockBegin
2
*MODEL_SPACE
0
ENDBLK
5
21
100
AcDbEntity
100
AcDbBlockEnd
0
BLOCK
5
1C
100
AcDbEntity
100
AcDbBlockBegin
2
*PAPER_SPACE
0
ENDBLK
5
1D
100
AcDbEntity
100
AcDbBlockEnd
0
ENDSEC
0
SECTION
2
ENTITIES
0
LWPOLYLINE
5
100
100
AcDbEntity
8
0
100
AcDbPolyline
90
176
70
1
43
0.0
10
-21.649999618525726
20
-30
10
-3.8146936276461929e-07
20
-30
42
0.41421367410155707
10
1.0000000000012219
20
-28.999999999998636
10
0.99999961852972796
20
-27.899999237060911
42
0.41421362022277175
10
0.19999999999981799
20
-27.100000000002609
10
-1.200000190740411
20
-27.09999999999809
42
0.41421337616123127
10
-1.5000000000009803
20
-27.400000000000091
10
-1.5000003814717839
20
-28.200000762935815
42
-0.41421371664133355
10
-1.7999999999983629
20
-28.499999999997478
10
-3.0500000953725248
20
-28.499999999999442
42
-0.41421353443865006
10
-4.0499999999978087
20
-27.5
10
-4.0500000953732975
20
-25.806854248041876
42
-0.19891232348289842
10
-3.1713203400022967
20
-23.685533909995172
10
-0.46446647589952622
20
-20.978679656435663
42
-0.19891236738005202
10
1.6568538676597202
20
-20.099999999997351
10
6.6931461323383701
20
-20.099999999998346
42
-0.19891236737951881
10
8.8144664758944451
20
-20.978679656436562
10
11.521320343015574
20
-23.685533523552934
42
-0.19891227312184454
10
12.400000000001635
20
-25.806854249997286
10
12.399999618528811
20
-27.5
42
-0.41421383211191215
10
11.400000000001
20
-28.500000000001897
10
10.149999618529364
20
-28.499999999994866
42
-0.41421318995161166
10
9.8499999999961574
20
-28.199999999994816
10
9.8500003814729098
20
-27.399999237054544
42
0.41421191837253724
10
9.5500000000015461
20
-27.099999999996292
10
8.1499996185311829
20
-27.09999999999809
42
0.41421342271336237
10
7.3500000000041865
20
-27.899999999999636
10
7.3500003814729098
20
-28.999999999998636
42
0.41421383211257806
10
8.3500000000003638
20
-30.000000000002807
10
16.175000000000637
20
-30
42
0.41421356237220708
10
19.174999999995208
20
-26.999999999993634
10
19.175000000000182
20
-19.175000381467271
42
0.41421367410155707
10
18.175000000001091
20
-18.174999999996686
10
17.074999237054271
20
-18.17500038146818
42
0.41421362021944175
10
16.274999999999736
20
-18.97499999999809
10
16.275000000000546
20
-20.375000190733772
42
0.41421337615235171
10
16.575000000000273
20
-20.67499999999562
10
17.375000762935997
20
-20.675000381470191
42
-0.41421371663911366
10
17.674999999997162
20
-20.974999999998545
10
17.674999999997848
20
-22.225000095368159
42
-0.41421353443998199
10
16.675000000000182
20
-23.224999999996214
10
14.981854248042055
20
-23.225000095362113
42
-0.19891232348220189
10
12.860533910001038
20
-22.346320339996794
10
10.153679656440035
20
-19.639466475895521
42
-0.19891236737963422
10
9.2750000000035744
20
-17.518146132335914
10
9.2750000000053507
20
-12.48185386765954
42
-0.19891236737963411
10
10.153679656441291
20
-10.360533524101193
10
12.86053352355766
20
-7.6536796569800591
42
-0.19891227312128754
10
14.981854249997468
20
-6.7749999999985473
10
16.675000000000182
20
-6.7750003814645492
42
-0.41421383211124618
10
17.674999999997532
20
-7.774999999994634
10
17.674999999996828
20
-9.0250003814685442
42
-0.41421318994051226
10
17.374999999999545
20
-9.3249999999967059
10
16.574999237054726
20
-9.3249996185295458
42
0.4142119183703174
10
16.274999999992922
20
-9.6249999999986358
10
16.275000000000546
20
-11.025000381468999
42
0.41421342270836764
10
17.074999999999818
20
-11.82499999999628
10
18.175000000001091
20
-11.824999618529546
42
0.41421383211324403
10
19.174999999995386
20
-10.824999999997544
10
19.175000000000182
20
-2.9999999999995453
42
0.41421356237220719
10
16.175000000000637
20
4.1217029789208937e-12
10
8.350000381474274
20
2.7755575615628914e-16
42
0.41421367410422089
10
7.3499999999973653
20
-0.99999999999909106
10
7.3500003814638148
20
-2.1000007629345419
42
0.41421362022526892
10
8.1500000000005457
20
-2.8999999999991646
10
9.5500001907294063
20
-2.8999999999996362
42
0.41421337616123227
10
9.8500000000026233
20
-2.5999999999976349
10
9.8500003814703732
20
-1.7999992370596372
42
-0.414213716641333
10
10.150000000001
20
-1.4999999999984734
10
11.400000095368341
20
-1.4999999999955138
42
-0.4142135344426458
10
12.39999999999867
20
-2.5
10
12.400000095364568
20
-4.1931457519535789
42
-0.19891232348261981
10
11.521320339995839
20
-6.3144660899980076
10
8.8144664758945623
20
-9.0213203435590135
42
-0.1989123673793794
10
6.6931461323383701
20
-9.8999999999966093
10
1.65685386765972
20
-9.9000000000021515
42
-0.19891236738019111
10
-0.4644664759019182
20
-9.021320343562186
10
-3.1713203430173653
20
-6.3144664764401259
42
-0.19891227312190238
10
-4.0500000000017682
20
-4.1931457499958924
10
-4.0499996185271687
20
-2.5
42
-0.41421383211324403
10
-3.0499999999983629
20
-1.500000000001656
10
-1.7999996185267262
20
-1.4999999999978124
42
-0.4142131899427316
10
-1.5000000000043909
20
-1.7999999999960892
10
-1.50000038147482
20
-2.6000007629340871
42
0.41421191838363614
10
-1.1999999999989091
20
-2.89999999999511
10
0.20000038147372806
20
-2.899999999992815
42
0.41421342270920014
10
0.99999999999795308
20
-2.0999999999980901
10
0.99999961852972818
20
-0.99999999999909106
42
0.41421383211257851
10
0
20
0
10
-21.649999999999636
20
0
42
0.41421356237442714
10
-22.649999999997306
20
-0.99999999999909106
10
-22.649999999998727
20
-2.0999999999980901
42
0.41421342271086503
10
-21.850000381468817
20
-2.8999999999961341
10
-20.449999999998454
20
-2.8999999999996362
42
0.41421281751024691
10
-20.150000000000119
20
-2.6000007629340871
10
-20.150000000003843
20
-1.7999999999960892
42
-0.41421318994717188
10
-19.850000381470636
20
-1.5000000000005835
10
-18.599999999999
20
-1.499999999993733
42
-0.41421356237509294
10
-17.599999999999554
20
-2.5
10
-17.600000000001828
20
-4.1931457499958915
42
-0.19891239086644541
10
-18.478679848154943
20
-6.3144662852674536
10
-21.185533524104301
20
-9.0213203435601486
42
-0.19891236737943721
10
-23.30685386766163
20
-9.8999999999966093
10
-28.34314613234028
20
-9.9000000000021515
42
-0.198912367380191
10
-30.464466475901915
20
-9.0213203435621878
10
-33.171320340000008
20
-6.3144660899979925
42
-0.19891236720933231
10
-34.049999994968942
20
-4.1931457519535806
10
-34.049999999997809
20
-2.5
42
-0.41421353443865006
10
-33.050000095372525
20
-1.5000000000005584
10
-31.799999999998363
20
-1.5000000000003388
42
-0.41421281750580774
10
-31.500000000003581
20
-1.7999992370550899
10
-31.500000000000909
20
-2.5999999999976349
42
0.41421337615013176
10
-31.200000190740411
20
-2.8999999999950981
10
-29.800000000000182
20
-2.8999999999996362
42
0.41421328304948124
10
-29.000000000002409
20
-2.1000007629345419
10
-29.000000000000909
20
-0.99999999999909106
42
0.41421367410288901
10
-30.000000381469363
20
2.0582147097769621e-12
10
-37.824999999997999
20
0
42
0.41421356237309503
10
-40.825000000001666
20
-2.9999999999995448
10
-40.824999999999818
20
-10.824999999997544
42
0.41421356237509294
10
-39.824999999998454
20
-11.824999999995214
10
-38.724999999999454
20
-11.824999999998909
42
0.41421342271086503
10
-37.924999999997851
20
-11.025000381468999
10
-37.925000000000182
20
-9.6249999999986358
42
0.41421281751468719
10
-38.224999237065731
20
-9.3249999999967521
10
-39.024999999999181
20
-9.3250000000002569
42
-0.41421318994051226
10
-39.325000000000017
20
-9.0250003814685442
10
-39.325000000002035
20
-7.774999999994634
42
-0.41421356237442697
10
-38.324999999999818
20
-6.7749999999969646
10
-36.631854249999378
20
-6.7749999999962549
42
-0.19891239086725712
10
-34.510533714728652
20
-7.653679848149137
10
-31.803679656441641
20
-10.360533524101905
42
-0.19891236738046983
10
-30.925000000002001
20
-12.481853867659538
10
-30.925000000002001
20
-17.518146132335914
42
-0.19891236738046994
10
-31.803679656441641
20
-19.639466475893549
10
-34.51053391000314
20
-22.346320340001149
42
-0.19891236721085048
10
-36.631854248050786
20
-23.224999994965501
10
-38.324999999999818
20
-23.224999999999767
42
-0.41421353444131387
10
-39.325000000005581
20
-22.225000095368159
10
-39.325000000002035
20
-20.974999999998545
42
-0.41421281750136796
10
-39.025000762944728
20
-20.674999999996665
10
-38.224999999997635
20
-20.67499999999427
42
0.41421337615235171
10
-37.924999999996622
20
-20.375000190733772
10
-37.925000000000182
20
-18.97499999999809
42
0.41421328305031369
10
-38.724999237065276
20
-18.174999999996764
10
-39.824999999998454
20
-18.17499999999427
42
0.41421367410288901
10
-40.825000000001381
20
-19.175000381467271
10
-40.824999999999818
20
-26.999999999993634
42
0.41421356237309503
10
-37.824999999997999
20
-29.9999999999973
10
-30
20
-30
42
0.41421356237309503
10
-29.000000000002331
20
-28.999999999998636
10
-29.000000000000909
20
-27.899999999999636
42
0.41421342271169748
10
-29.799999618526272
20
-27.099999999994772
10
-31.199999999998909
20
-27.09999999999809
42
0.41421281750802758
10
-31.49999999999369
20
-27.399999237054544
10
-31.500000000002618
20
-28.199999999994816
42
-0.41421318994273221
10
-31.799999618526726
20
-28.499999999994866
10
-33.049999999998363
20
-28.499999999997669
42
-0.41421356237309503
10
-34.049999999996032
20
-27.5
10
-34.05000000000009
20
-25.806854249997286
42
-0.19891239086628199
10
-33.171320151851518
20
-23.685533714725725
10
-30.464466475899528
20
-20.978679656435659
42
-0.19891236738005191
10
-28.34314613234028
20
-20.099999999997351
10
-23.30685386766163
20
-20.099999999998346
42
-0.1989123673795764
10
-21.185533524104422
20
-20.978679656435425
10
-18.478679660001902
20
-23.685533909999737
42
-0.19891236720897221
10
-17.600000005037515
20
-25.806854248041873
10
-17.599999999997777
20
-27.5
42
-0.4142135344406479
10
-18.599999904631659
20
-28.500000000001219
10
-19.849999999999
20
-28.499999999996888
42
-0.41421281750802758
10
-20.149999999995551
20
-28.200000762938089
10
-20.149999999998727
20
-27.400000000000091
42
0.414213376163451
10
-20.449999809270594
20
-27.099999999999078
10
-21.849999999999454
20
-27.099999999993543
42
0.41421328305114613
10
-22.649999999997227
20
-27.899999237060911
10
-22.649999999998727
20
-28.999999999998636
42
0.41421367410288901
0
LWPOLYLINE
5
101
100
AcDbEntity
8
0
100
AcDbPolyline
90
24
70
1
43
0.0
10
-7.9400000782970892
20
-28.109999999999431
42
0.4142135788706407
10
-5.9400000782964231
20
-26.109999887346476
10
-5.9400000931140813
20
-25.846855006063834
42
-0.1989123820177853
10
-4.475533999052459
20
-22.311320818505465
10
-1.8036796564403828
20
-19.639466475894803
42
0.19891236738046966
10
-0.92499999999972715
20
-17.518146132335914
10
-0.92500000000022509
20
-12.481853867659538
42
0.1989123673804698
10
-1.8036796564410911
20
-10.360533524101356
10
-4.4755336425807881
20
-7.6886799223850666
42
-0.19891244462981403
10
-5.9399999909919643
20
-4.1531446355975277
10
-5.9399999317036176
20
-3.8900004506035661
42
0.41421362836327874
10
-7.9399999317024594
20
-1.889999999993961
10
-13.710000068299451
20
-1.8899999999955239
42
0.41421362836327874
10
-15.710000068299905
20
-3.8900004506035661
10
-15.710000009012157
20
-4.153144635595253
42
-0.19891244463009933
10
-17.174466357423626
20
-7.6886799223825619
10
-19.84632034356224
20
-10.360533524102209
42
0.19891236737935555
10
-20.724999999997635
20
-12.481853867659538
10
-20.724999999996427
20
-17.518146132335914
42
0.19891236737935558
10
-19.846320343563093
20
-19.639466475894096
10
-17.174466000952119
20
-22.311320818501315
42
-0.1989123820184884
10
-15.709999906885059
20
-25.846855006063834
10
-15.709999921708258
20
-26.109999887346476
42
0.4142135788706407
10
-13.709999921709368
20
-28.109999999992397
0
LWPOLYLINE
5
102
100
AcDbEntity
8
0
100
AcDbPolyline
90
8
70
1
43
0.0
10
-39.325000000001062
20
-5.0499992370600921
42
0.41421430723411506
10
-39.024999999999181
20
-5.3499999999971237
10
-35.774999809268593
20
-5.3500003814645938
42
0.41421247702417291
10
-35.474999999999
20
-5.0499999999942702
10
-35.474999999999426
20
-1.7999999999960892
42
0.41421356237309503
10
-35.774999999998727
20
-1.499999999998636
10
-37.824999999997999
20
-1.4999999999959357
42
0.41421356237309503
10
-39.324999999998909
20
-2.9999999999995448
0
LWPOLYLINE
5
103
100
AcDbEntity
8
0
100
AcDbPolyline
90
8
70
1
43
0.0
10
17.374999999999545
20
-5.3499999999971237
42
0.41421430723411506
10
17.675000000001429
20
-5.0499992370600921
10
17.674999999995151
20
-2.9999999999995448
42
0.41421356237131918
10
16.175000000000637
20
-1.499999999998636
10
14.124999999999091
20
-1.4999999999972857
42
0.4142135623708752
10
13.825000000001637
20
-1.7999999999960892
10
13.824999999998013
20
-5.0499999999942702
42
0.41421337615235171
10
14.124999809259862
20
-5.3499999999985448
0
LWPOLYLINE
5
104
100
AcDbEntity
8
0
100
AcDbPolyline
90
8
70
1
43
0.0
10
17.675000000002395
20
-24.949999999998909
42
0.41421351582234661
10
17.375000047679805
20
-24.649999999996059
10
14.124999999999091
20
-24.649999999996055
42
0.4142143072363349
10
13.825000000001637
20
-24.95000076293536
10
13.824999999998013
20
-28.199999999994816
42
0.41421356237309503
10
14.124999999999091
20
-28.499999999999091
10
16.175000000000637
20
-28.499999999997243
42
0.41421356237131918
10
17.675000000001546
20
-26.999999999993634
0
LWPOLYLINE
5
105
100
AcDbEntity
8
0
100
AcDbPolyline
90
8
70
1
43
0.0
10
-39.025000047688536
20
-24.649999999996556
42
0.41421351580680754
10
-39.324999999999264
20
-24.949999999998909
10
-39.325000000001609
20
-26.999999999993634
42
0.41421356237309503
10
-37.824999999997999
20
-28.499999999999091
10
-35.774999999998727
20
-28.49999999999234
42
0.41421356237309503
10
-35.474999999999
20
-28.199999999994816
10
-35.475000095372245
20
-24.95000076293536
42
0.4142145320147374
10
-35.774999999998727
20
-24.649999999999181
0
CIRCLE
5
106
100
AcDbEntity
8
0
100
AcDbCircle
10
-25.824999999999818
20
-15
30
0
40
2.4499999999996191
210
0
220
0
230
1
0
CIRCLE
5
107
100
AcDbEntity
8
0
100
AcDbCircle
10
4.1750000000001819
20
-15
30
0
40
2.4499999999996191
210
0
220
0
230
1
0
LWPOLYLINE
5
108
100
AcDbEntity
8
0
100
AcDbPolyline
90
176
70
1
43
0.0
10
-21.649999618525726
20
-30
10
-3.8146936276461929e-07
20
-30
42
0.41421367410155502
10
1.0000000000012217
20
-28.999999999998639
10
0.99999961852972796
20
-27.899999237060911
42
0.41421362022276836
10
0.19999999999981793
20
-27.100000000002609
10
-1.200000190740411
20
-27.09999999999809
42
0.41421337616124215
10
-1.5000000000009814
20
-27.400000000000091
10
-1.5000003814717839
20
-28.200000762935815
42
-0.41421371664133355
10
-1.7999999999983629
20
-28.499999999997478
10
-3.0500000953725248
20
-28.499999999999442
42
-0.41421353443865006
10
-4.0499999999978087
20
-27.5
10
-4.0500000953732975
20
-25.806854248041876
42
-0.19891232348289853
10
-3.1713203400022962
20
-23.685533909995172
10
-0.46446647589952594
20
-20.978679656435663
42
-0.19891236738005202
10
1.6568538676597209
20
-20.099999999997351
10
6.693146132338371
20
-20.099999999998346
42
-0.19891236737951881
10
8.8144664758944451
20
-20.978679656436562
10
11.521320343015574
20
-23.685533523552934
42
-0.19891227312184454
10
12.400000000001635
20
-25.806854249997286
10
12.399999618528811
20
-27.5
42
-0.41421383211191215
10
11.400000000001
20
-28.500000000001897
10
10.149999618529364
20
-28.499999999994866
42
-0.41421318995161166
10
9.8499999999961574
20
-28.199999999994816
10
9.8500003814729098
20
-27.399999237054544
42
0.41421191837253724
10
9.5500000000015461
20
-27.099999999996292
10
8.1499996185311829
20
-27.09999999999809
42
0.41421342271335909
10
7.3500000000041847
20
-27.899999999999636
10
7.3500003814729098
20
-28.999999999998636
42
0.41421383211257579
10
8.3500000000003638
20
-30.000000000002807
10
16.175000000000637
20
-30
42
0.41421356237220758
10
19.174999999995212
20
-26.999999999993634
10
19.175000000000182
20
-19.175000381467271
42
0.41421367410155707
10
18.175000000001091
20
-18.174999999996686
10
17.074999237054271
20
-18.17500038146818
42
0.41421362021944014
10
16.274999999999736
20
-18.97499999999809
10
16.275000000000546
20
-20.375000190733772
42
0.41421337615234083
10
16.575000000000273
20
-20.67499999999562
10
17.375000762935997
20
-20.675000381470191
42
-0.41421371663911366
10
17.674999999997162
20
-20.974999999998545
10
17.674999999997848
20
-22.225000095368159
42
-0.41421353443998199
10
16.675000000000182
20
-23.224999999996214
10
14.981854248042055
20
-23.225000095362113
42
-0.19891232348220189
10
12.860533910001038
20
-22.346320339996794
10
10.153679656440035
20
-19.639466475895517
42
-0.19891236737963411
10
9.2750000000035744
20
-17.518146132335914
10
9.2750000000053507
20
-12.48185386765954
42
-0.19891236737963411
10
10.153679656441291
20
-10.360533524101193
10
12.86053352355766
20
-7.6536796569800591
42
-0.19891227312128754
10
14.981854249997468
20
-6.7749999999985473
10
16.675000000000182
20
-6.7750003814645492
42
-0.41421383211124618
10
17.674999999997532
20
-7.774999999994634
10
17.674999999996828
20
-9.0250003814685442
42
-0.41421318994051226
10
17.374999999999545
20
-9.3249999999967059
10
16.574999237054726
20
-9.3249996185295458
42
0.41421191837031851
10
16.274999999992922
20
-9.6249999999986358
10
16.275000000000546
20
-11.025000381468999
42
0.41421342270836686
10
17.074999999999818
20
-11.824999999996278
10
18.175000000001091
20
-11.824999618529546
42
0.41421383211324403
10
19.174999999995386
20
-10.824999999997544
10
19.175000000000182
20
-2.9999999999995453
42
0.41421356237220758
10
16.175000000000637
20
4.1217029789208937e-12
10
8.350000381474274
20
2.7755575615628914e-16
42
0.41421367410422161
10
7.3499999999973653
20
-0.99999999999909117
10
7.3500003814638148
20
-2.1000007629345419
42
0.41421362022526853
10
8.1500000000005457
20
-2.8999999999991655
10
9.5500001907294063
20
-2.8999999999996362
42
0.41421337616123333
10
9.8500000000026215
20
-2.5999999999976349
10
9.8500003814703732
20
-1.7999992370596372
42
-0.414213716641333
10
10.150000000001
20
-1.4999999999984734
10
11.400000095368341
20
-1.4999999999955138
42
-0.4142135344426458
10
12.39999999999867
20
-2.5
10
12.400000095364568
20
-4.1931457519535789
42
-0.19891232348261981
10
11.521320339995839
20
-6.3144660899980076
10
8.8144664758945623
20
-9.0213203435590135
42
-0.1989123673793794
10
6.6931461323383701
20
-9.8999999999966093
10
1.65685386765972
20
-9.9000000000021515
42
-0.19891236738019111
10
-0.46446647590191847
20
-9.021320343562186
10
-3.1713203430173658
20
-6.3144664764401259
42
-0.19891227312190238
10
-4.0500000000017682
20
-4.1931457499958915
10
-4.0499996185271687
20
-2.5
42
-0.41421383211324403
10
-3.0499999999983629
20
-1.500000000001656
10
-1.7999996185267262
20
-1.4999999999978124
42
-0.4142131899427316
10
-1.5000000000043909
20
-1.7999999999960892
10
-1.50000038147482
20
-2.6000007629340871
42
0.41421191838363469
10
-1.1999999999989091
20
-2.8999999999951092
10
0.20000038147372806
20
-2.899999999992815
42
0.41421342270919975
10
0.99999999999795319
20
-2.0999999999980896
10
0.99999961852972796
20
-0.99999999999909106
42
0.41421383211257834
10
-2.964190475427444e-16
20
-7.4634742830426148e-13
10
-21.649999999999636
20
0
42
0.41421356237442641
10
-22.649999999997306
20
-0.99999999999909117
10
-22.649999999998727
20
-2.0999999999980901
42
0.41421342271086664
10
-21.850000381468817
20
-2.8999999999961301
10
-20.449999999998454
20
-2.8999999999996362
42
0.41421281751024314
10
-20.150000000000119
20
-2.6000007629340871
10
-20.150000000003843
20
-1.7999999999960892
42
-0.41421318994717188
10
-19.850000381470636
20
-1.5000000000005835
10
-18.599999999999
20
-1.499999999993733
42
-0.41421356237509294
10
-17.599999999999554
20
-2.5
10
-17.600000000001824
20
-4.1931457499958915
42
-0.19891239086644541
10
-18.478679848154943
20
-6.3144662852674553
10
-21.185533524104301
20
-9.0213203435601486
42
-0.19891236737943721
10
-23.30685386766163
20
-9.8999999999966093
10
-28.34314613234028
20
-9.9000000000021515
42
-0.198912367380191
10
-30.464466475901915
20
-9.0213203435621878
10
-33.171320340000008
20
-6.3144660899979925
42
-0.19891236720933231
10
-34.049999994968942
20
-4.1931457519535797
10
-34.049999999997809
20
-2.5
42
-0.41421353443865006
10
-33.050000095372525
20
-1.5000000000005587
10
-31.799999999998363
20
-1.5000000000003388
42
-0.41421281750580774
10
-31.500000000003581
20
-1.7999992370550899
10
-31.500000000000909
20
-2.5999999999976349
42
0.41421337615013826
10
-31.200000190740411
20
-2.8999999999950967
10
-29.800000000000182
20
-2.8999999999996362
42
0.4142132830494788
10
-29.000000000002409
20
-2.1000007629345414
10
-29.000000000000909
20
-0.99999999999909106
42
0.41421367410288912
10
-30.000000381469363
20
2.0586310434111965e-12
10
-37.824999999997999
20
0
42
0.41421356237309531
10
-40.825000000001666
20
-2.9999999999995453
10
-40.824999999999818
20
-10.824999999997544
42
0.4142135623750916
10
-39.824999999998454
20
-11.82499999999521
10
-38.724999999999454
20
-11.824999999998909
42
0.41421342271086098
10
-37.924999999997851
20
-11.025000381468999
10
-37.925000000000182
20
-9.6249999999986358
42
0.41421281751468719
10
-38.224999237065731
20
-9.3249999999967521
10
-39.024999999999181
20
-9.3250000000002569
42
-0.41421318994051226
10
-39.325000000000017
20
-9.0250003814685442
10
-39.325000000002035
20
-7.774999999994634
42
-0.41421356237442697
10
-38.324999999999818
20
-6.7749999999969646
10
-36.631854249999378
20
-6.7749999999962549
42
-0.19891239086725712
10
-34.510533714728652
20
-7.653679848149137
10
-31.803679656441641
20
-10.360533524101905
42
-0.19891236738046983
10
-30.925000000002001
20
-12.481853867659538
10
-30.925000000002001
20
-17.518146132335914
42
-0.19891236738046994
10
-31.803679656441641
20
-19.639466475893549
10
-34.51053391000314
20
-22.346320340001149
42
-0.19891236721085048
10
-36.631854248050786
20
-23.224999994965501
10
-38.324999999999818
20
-23.224999999999767
42
-0.41421353444131387
10
-39.325000000005581
20
-22.225000095368159
10
-39.325000000002035
20
-20.974999999998545
42
-0.41421281750136796
10
-39.025000762944728
20
-20.674999999996665
10
-38.224999999997635
20
-20.67499999999427
42
0.41421337615234299
10
-37.924999999996622
20
-20.375000190733772
10
-37.925000000000182
20
-18.97499999999809
42
0.4142132830503169
10
-38.724999237065276
20
-18.174999999996764
10
-39.824999999998454
20
-18.17499999999427
42
0.41421367410289156
10
-40.825000000001381
20
-19.175000381467271
10
-40.824999999999818
20
-26.999999999993634
42
0.41421356237309503
10
-37.824999999997999
20
-29.9999999999973
10
-30
20
-30
42
0.41421356237309243
10
-29.000000000002331
20
-28.999999999998636
10
-29.000000000000909
20
-27.899999999999636
42
0.4142134227117007
10
-29.799999618526272
20
-27.099999999994768
10
-31.199999999998909
20
-27.09999999999809
42
0.41421281750802325
10
-31.499999999993694
20
-27.399999237054544
10
-31.500000000002618
20
-28.199999999994816
42
-0.41421318994273221
10
-31.799999618526726
20
-28.499999999994866
10
-33.049999999998363
20
-28.499999999997669
42
-0.41421356237309503
10
-34.049999999996032
20
-27.5
10
-34.05000000000009
20
-25.806854249997286
42
-0.19891239086628199
10
-33.171320151851518
20
-23.685533714725725
10
-30.464466475899528
20
-20.978679656435659
42
-0.19891236738005191
10
-28.34314613234028
20
-20.099999999997351
10
-23.30685386766163
20
-20.099999999998346
42
-0.1989123673795764
10
-21.185533524104422
20
-20.978679656435425
10
-18.478679660001902
20
-23.685533909999737
42
-0.19891236720897221
10
-17.600000005037515
20
-25.806854248041873
10
-17.599999999997777
20
-27.5
42
-0.4142135344406479
10
-18.599999904631659
20
-28.500000000001219
10
-19.849999999999
20
-28.499999999996888
42
-0.41421281750802758
10
-20.149999999995551
20
-28.200000762938089
10
-20.149999999998727
20
-27.400000000000091
42
0.41421337616345538
10
-20.449999809270594
20
-27.099999999999071
10
-21.849999999999454
20
-27.099999999993543
42
0.41421328305114613
10
-22.649999999997227
20
-27.899999237060911
10
-22.649999999998727
20
-28.999999999998636
42
0.41421367410288901
0
LWPOLYLINE
5
109
100
AcDbEntity
8
0
100
AcDbPolyline
90
24
70
1
43
0.0
10
-7.9400000782970892
20
-28.109999999999431
42
0.4142135788706407
10
-5.9400000782964248
20
-26.109999887346476
10
-5.9400000931140813
20
-25.846855006063837
42
-0.19891238201778552
10
-4.475533999052459
20
-22.311320818505465
10
-1.8036796564403828
20
-19.639466475894803
42
0.19891236738047005
10
-0.92499999999972715
20
-17.518146132335914
10
-0.92500000000022509
20
-12.481853867659538
42
0.19891236738046977
10
-1.8036796564410911
20
-10.360533524101356
10
-4.4755336425807881
20
-7.6886799223850666
42
-0.19891244462981403
10
-5.9399999909919643
20
-4.1531446355975277
10
-5.9399999317036194
20
-3.8900004506035661
42
0.41421362836327896
10
-7.9399999317024594
20
-1.889999999993961
10
-13.710000068299451
20
-1.8899999999955237
42
0.41421362836327791
10
-15.710000068299905
20
-3.8900004506035661
10
-15.710000009012157
20
-4.1531446355952548
42
-0.19891244463009922
10
-17.174466357423626
20
-7.6886799223825619
10
-19.84632034356224
20
-10.360533524102211
42
0.19891236737935628
10
-20.724999999997635
20
-12.481853867659538
10
-20.724999999996427
20
-17.518146132335918
42
0.19891236737935541
10
-19.846320343563093
20
-19.639466475894096
10
-17.174466000952119
20
-22.311320818501315
42
-0.19891238201848829
10
-15.709999906885059
20
-25.846855006063834
10
-15.709999921708258
20
-26.109999887346476
42
0.41421357887064003
10
-13.709999921709368
20
-28.109999999992397
0
CIRCLE
5
110
100
AcDbEntity
8
0
100
AcDbCircle
10
-25.824999999999818
20
-15
30
0
40
2.4499999999996187
210
0
220
0
230
1
0
CIRCLE
5
111
100
AcDbEntity
8
0
100
AcDbCircle
10
4.1750000000001819
20
-15
30
0
40
2.4499999999996187
210
0
220
0
230
1
0
LWPOLYLINE
5
112
100
AcDbEntity
8
0
100
AcDbPolyline
90
8
70
1
43
0.0
10
-39.325000000001062
20
-5.0499992370600921
42
0.41421430723411184
10
-39.024999999999181
20
-5.3499999999971273
10
-35.774999809268593
20
-5.3500003814645938
42
0.41421247702417835
10
-35.474999999999
20
-5.0499999999942702
10
-35.474999999999426
20
-1.7999999999960892
42
0.41421356237309559
10
-35.774999999998727
20
-1.499999999998636
10
-37.824999999997999
20
-1.4999999999959357
42
0.4142135623730947
10
-39.324999999998909
20
-2.9999999999995448
0
LWPOLYLINE
5
113
100
AcDbEntity
8
0
100
AcDbPolyline
90
8
70
1
43
0.0
10
17.374999999999545
20
-5.3499999999971237
42
0.41421430723411506
10
17.675000000001429
20
-5.0499992370600921
10
17.674999999995151
20
-2.9999999999995448
42
0.41421356237131818
10
16.175000000000637
20
-1.499999999998636
10
14.124999999999091
20
-1.4999999999972859
42
0.41421356237087303
10
13.825000000001637
20
-1.7999999999960892
10
13.824999999998013
20
-5.0499999999942702
42
0.4142133761523506
10
14.124999809259862
20
-5.3499999999985448
0
LWPOLYLINE
5
114
100
AcDbEntity
8
0
100
AcDbPolyline
90
8
70
1
43
0.0
10
17.675000000002395
20
-24.949999999998909
42
0.41421351582235533
10
17.375000047679805
20
-24.649999999996059
10
14.124999999999091
20
-24.649999999996055
42
0.4142143072363349
10
13.825000000001637
20
-24.95000076293536
10
13.824999999998013
20
-28.199999999994816
42
0.41421356237310153
10
14.124999999999091
20
-28.499999999999091
10
16.175000000000637
20
-28.499999999997243
42
0.41421356237131823
10
17.675000000001546
20
-26.999999999993634
0
LWPOLYLINE
5
115
100
AcDbEntity
8
0
100
AcDbPolyline
90
8
70
1
43
0.0
10
-39.025000047688536
20
-24.649999999996556
42
0.41421351580681187
10
-39.324999999999257
20
-24.949999999998909
10
-39.325000000001609
20
-26.999999999993634
42
0.41421356237309503
10
-37.824999999997999
20
-28.499999999999091
10
-35.774999999998727
20
-28.49999999999234
42
0.41421356237308637
10
-35.474999999999
20
-28.199999999994816
10
-35.475000095372245
20
-24.95000076293536
42
0.4142145320147374
10
-35.774999999998727
20
-24.649999999999181
0
ENDSEC
0
SECTION
2
OBJECTS
0
DICTIONARY
5
C
100
AcDbDictionary
3
ACAD_GROUP
350
D
3
ACAD_MLINESTYLE
350
17
0
DICTIONARY
5
D
100
AcDbDictionary
0
DICTIONARY
5
1A
330
C
100
AcDbDictionary
0
DICTIONARY
5
17
100
AcDbDictionary
0
ENDSEC
0
EOF
